<svg width="132" height="22" viewBox="0 0 132 22" fill="none" xmlns="http://www.w3.org/2000/svg">
<path d="M120.028 1.15234H117.583L106.381 20.8765H112.456L114.089 17.842H123.582L125.184 20.8765H131.26L120.028 1.15234ZM116.284 13.7834L118.805 8.79165L121.304 13.7834H116.284Z" fill="#2C2C2C"/>
<path d="M10.3283 8.71569C6.9868 8.1619 6.12105 8.00258 6.12105 7.00879C6.12105 6.015 7.30577 5.35499 9.30308 5.35499C11.4042 5.33636 13.4343 6.11442 14.9837 7.53223L17.4063 3.27637C15.7887 2.00947 12.8269 0.886719 9.20435 0.886719C4.15411 0.886719 0.683492 3.48879 0.683492 7.24396C0.683492 10.9991 3.7592 12.2357 8.3386 12.9715C12.3864 13.624 13.2749 13.9426 13.2749 14.9667C13.2749 15.9909 12.0902 16.6509 9.5461 16.6509C8.22854 16.6792 6.91898 16.4396 5.69701 15.9466C4.47503 15.4536 3.36616 14.7176 2.43779 13.7833L0 18.0846C1.72392 19.7309 5.03506 21.0812 9.56888 21.0812C14.247 21.0812 18.7429 18.9798 18.7429 14.5191C18.7429 11.1281 15.9026 9.63362 10.3283 8.71569Z" fill="#2C2C2C"/>
<path d="M30.6587 1.15234L19.457 20.8765H25.5325L27.1653 17.842H36.6582L38.2606 20.8765H44.3361L33.1345 1.15234H30.6587ZM29.3677 13.7834L31.8966 8.79165L34.3951 13.7834H29.3677Z" fill="#2C2C2C"/>
<path d="M76.5662 0.886719C69.9895 0.886719 65 5.14258 65 10.9764C65 16.8102 69.9591 21.1115 76.5662 21.1115C83.1733 21.1115 88.1856 16.8178 88.1856 10.9764C88.1856 5.135 83.1657 0.886719 76.5662 0.886719ZM76.5662 16.5674C73.2019 16.5674 70.4907 14.3902 70.4907 10.9764C70.4907 7.56258 73.1943 5.43086 76.5662 5.43086C79.9381 5.43086 82.748 7.56258 82.748 10.9764C82.748 14.3902 79.9533 16.5674 76.5662 16.5674Z" fill="#2C2C2C"/>
<path d="M52.295 12.6227L45.9613 1.15234H39.8555L51.0571 20.8461H53.5025L64.7042 1.15234H58.6059L52.295 12.6227Z" fill="#2C2C2C"/>
<path d="M104.879 1.15234L99.6234 8.50338L94.3606 1.15234H87.7383L96.9882 13.6013V20.8461H102.274V13.571L111.509 1.15234H104.879Z" fill="#2C2C2C"/>
</svg>
