<svg width="41" height="48" viewBox="0 0 41 48" fill="none" xmlns="http://www.w3.org/2000/svg">
<path d="M40.7547 29.4657V13.9649L16.971 0L0.000611162 9.97019V13.8927L31.0902 32.1415L16.9777 40.432L9.92852 36.2907V24.3577L6.81333 22.5296V34.4698L3.11458 32.2966V20.363L0 18.5343V34.0357L23.7843 48L40.7541 38.0304V34.1079L9.66515 15.8591L23.777 7.56797L30.825 11.7087V23.6417L33.9414 25.4698V13.5302L37.6401 15.7028V27.6376L40.7547 29.4657ZM37.6395 35.9811V36.2901L23.7843 44.4309L20.0153 42.2169L34.1333 33.9227L37.6395 35.9811ZM6.62207 14.0773L3.11519 12.0195V11.7105L16.971 3.56967L20.7388 5.78313L6.62207 14.0773Z" fill="url(#paint0_linear_970_5226)"/>
<defs>
<linearGradient id="paint0_linear_970_5226" x1="9.48895e-08" y1="24" x2="40.7547" y2="24" gradientUnits="userSpaceOnUse">
<stop stop-color="#C56129"/>
<stop offset="1" stop-color="#F5AD59"/>
</linearGradient>
</defs>
</svg>
